<mxfile host="app.diagrams.net" modified="2022-10-21T15:40:14.083Z" agent="5.0 (Macintosh)" etag="U-6fXEN1Sn5i26S474DN" version="20.4.2" type="github" pages="2">
  <diagram id="2sO_4onhugDU0Kl1AgzK" name="Page-1">
    <mxGraphModel dx="946" dy="617" grid="1" gridSize="10" guides="1" tooltips="1" connect="1" arrows="1" fold="1" page="1" pageScale="1" pageWidth="850" pageHeight="1100" math="0" shadow="0">
      <root>
        <mxCell id="0" />
        <mxCell id="1" parent="0" />
        <mxCell id="2VTOW2IW8ZpL9YFtVFEM-12" value="" style="edgeStyle=entityRelationEdgeStyle;fontSize=12;html=1;endArrow=ERzeroToMany;startArrow=ERzeroToOne;rounded=0;exitX=0;exitY=0.5;exitDx=0;exitDy=0;entryX=1;entryY=0.5;entryDx=0;entryDy=0;" parent="1" source="oM1QNY0bsyNBVNweQzOE-21" target="2VTOW2IW8ZpL9YFtVFEM-6" edge="1">
          <mxGeometry width="100" height="100" relative="1" as="geometry">
            <mxPoint x="670" y="150" as="sourcePoint" />
            <mxPoint x="630" y="320" as="targetPoint" />
          </mxGeometry>
        </mxCell>
        <mxCell id="2VTOW2IW8ZpL9YFtVFEM-13" value="" style="edgeStyle=entityRelationEdgeStyle;fontSize=12;html=1;endArrow=ERzeroToMany;startArrow=ERzeroToOne;rounded=0;entryX=0;entryY=0.25;entryDx=0;entryDy=0;" parent="1" source="oM1QNY0bsyNBVNweQzOE-19" target="2VTOW2IW8ZpL9YFtVFEM-6" edge="1">
          <mxGeometry width="100" height="100" relative="1" as="geometry">
            <mxPoint x="350" y="130" as="sourcePoint" />
            <mxPoint x="410" y="280" as="targetPoint" />
          </mxGeometry>
        </mxCell>
        <mxCell id="2VTOW2IW8ZpL9YFtVFEM-15" value="" style="group;" parent="1" vertex="1" connectable="0">
          <mxGeometry x="462.5" y="180" width="171.25" height="130" as="geometry" />
        </mxCell>
        <mxCell id="2VTOW2IW8ZpL9YFtVFEM-6" value="" style="rounded=0;whiteSpace=wrap;html=1;fillColor=#FFFF99;" parent="2VTOW2IW8ZpL9YFtVFEM-15" vertex="1">
          <mxGeometry width="170" height="130" as="geometry" />
        </mxCell>
        <mxCell id="2VTOW2IW8ZpL9YFtVFEM-14" value="&lt;div&gt;FK(Teacher)&lt;/div&gt;&lt;div&gt;FK(CourseCategory)&lt;br&gt;&lt;/div&gt;&lt;div&gt;FK(Quiz)&lt;/div&gt;&lt;div&gt;FK(OfferedQuizAnswer)&lt;/div&gt;" style="text;html=1;align=left;verticalAlign=middle;resizable=0;points=[];autosize=1;strokeColor=none;fillColor=none;" parent="2VTOW2IW8ZpL9YFtVFEM-15" vertex="1">
          <mxGeometry x="17.08" y="24.546363636363637" width="150" height="70" as="geometry" />
        </mxCell>
        <mxCell id="2VTOW2IW8ZpL9YFtVFEM-16" value="CourseCategoryQuiz" style="text;whiteSpace=wrap;html=1;fontStyle=1" parent="2VTOW2IW8ZpL9YFtVFEM-15" vertex="1">
          <mxGeometry x="14.166666666666668" width="155.83333333333334" height="24.545454545454547" as="geometry" />
        </mxCell>
        <mxCell id="oM1QNY0bsyNBVNweQzOE-1" value="Answer" style="whiteSpace=wrap;html=1;aspect=fixed;fontStyle=1" parent="1" vertex="1">
          <mxGeometry x="700" y="240" width="80" height="80" as="geometry" />
        </mxCell>
        <mxCell id="oM1QNY0bsyNBVNweQzOE-7" value="" style="group;fillColor=#FFE6CC;" parent="1" vertex="1" connectable="0">
          <mxGeometry x="455" y="430" width="185" height="80" as="geometry" />
        </mxCell>
        <mxCell id="oM1QNY0bsyNBVNweQzOE-8" value="" style="rounded=0;whiteSpace=wrap;html=1;fillColor=#FFE6CC;" parent="oM1QNY0bsyNBVNweQzOE-7" vertex="1">
          <mxGeometry width="185.00000000000003" height="80" as="geometry" />
        </mxCell>
        <mxCell id="oM1QNY0bsyNBVNweQzOE-9" value="&lt;div&gt;FK(Student)&lt;/div&gt;&lt;div&gt;FK(CourseCategoryQuiz)&lt;br&gt;&lt;/div&gt;" style="text;html=1;align=left;verticalAlign=middle;resizable=0;points=[];autosize=1;strokeColor=none;fillColor=none;" parent="oM1QNY0bsyNBVNweQzOE-7" vertex="1">
          <mxGeometry x="15.415000000000003" y="22.2189898989899" width="160" height="40" as="geometry" />
        </mxCell>
        <mxCell id="oM1QNY0bsyNBVNweQzOE-10" value="StudentQuizSolution" style="text;whiteSpace=wrap;html=1;fontStyle=1" parent="oM1QNY0bsyNBVNweQzOE-7" vertex="1">
          <mxGeometry x="15.416666666666666" width="169.58333333333334" height="21.818181818181817" as="geometry" />
        </mxCell>
        <mxCell id="oM1QNY0bsyNBVNweQzOE-17" value="" style="edgeStyle=entityRelationEdgeStyle;fontSize=12;html=1;endArrow=ERzeroToMany;startArrow=ERzeroToOne;rounded=0;exitX=0;exitY=0.5;exitDx=0;exitDy=0;" parent="1" source="oM1QNY0bsyNBVNweQzOE-1" target="oM1QNY0bsyNBVNweQzOE-8" edge="1">
          <mxGeometry width="100" height="100" relative="1" as="geometry">
            <mxPoint x="642.5000000000005" y="250" as="sourcePoint" />
            <mxPoint x="580" y="380" as="targetPoint" />
          </mxGeometry>
        </mxCell>
        <mxCell id="oM1QNY0bsyNBVNweQzOE-18" value="" style="endArrow=classic;html=1;rounded=0;exitX=0.5;exitY=1;exitDx=0;exitDy=0;entryX=0.455;entryY=0;entryDx=0;entryDy=0;entryPerimeter=0;" parent="1" source="2VTOW2IW8ZpL9YFtVFEM-6" target="oM1QNY0bsyNBVNweQzOE-10" edge="1">
          <mxGeometry width="50" height="50" relative="1" as="geometry">
            <mxPoint x="530" y="340" as="sourcePoint" />
            <mxPoint x="580" y="290" as="targetPoint" />
          </mxGeometry>
        </mxCell>
        <mxCell id="oM1QNY0bsyNBVNweQzOE-24" style="edgeStyle=orthogonalEdgeStyle;rounded=0;orthogonalLoop=1;jettySize=auto;html=1;entryX=0.5;entryY=0;entryDx=0;entryDy=0;" parent="1" source="oM1QNY0bsyNBVNweQzOE-19" target="oM1QNY0bsyNBVNweQzOE-22" edge="1">
          <mxGeometry relative="1" as="geometry" />
        </mxCell>
        <mxCell id="oM1QNY0bsyNBVNweQzOE-19" value="Teacher" style="rounded=0;whiteSpace=wrap;html=1;fontStyle=1" parent="1" vertex="1">
          <mxGeometry x="280" y="120" width="120" height="60" as="geometry" />
        </mxCell>
        <mxCell id="oM1QNY0bsyNBVNweQzOE-21" value="CourseCateory" style="rounded=0;whiteSpace=wrap;html=1;fontStyle=1" parent="1" vertex="1">
          <mxGeometry x="670" y="110" width="100" height="60" as="geometry" />
        </mxCell>
        <mxCell id="oM1QNY0bsyNBVNweQzOE-27" value="" style="edgeStyle=entityRelationEdgeStyle;fontSize=12;html=1;endArrow=ERzeroToMany;startArrow=ERzeroToOne;rounded=0;entryX=0;entryY=0.5;entryDx=0;entryDy=0;exitX=1;exitY=0.571;exitDx=0;exitDy=0;exitPerimeter=0;" parent="1" source="oM1QNY0bsyNBVNweQzOE-22" target="2VTOW2IW8ZpL9YFtVFEM-6" edge="1">
          <mxGeometry width="100" height="100" relative="1" as="geometry">
            <mxPoint x="390" y="260" as="sourcePoint" />
            <mxPoint x="472.5" y="355" as="targetPoint" />
          </mxGeometry>
        </mxCell>
        <mxCell id="oM1QNY0bsyNBVNweQzOE-32" value="" style="group" parent="1" vertex="1" connectable="0">
          <mxGeometry x="120" y="190" width="90" height="90" as="geometry" />
        </mxCell>
        <mxCell id="oM1QNY0bsyNBVNweQzOE-29" value="" style="rounded=0;whiteSpace=wrap;html=1;" parent="oM1QNY0bsyNBVNweQzOE-32" vertex="1">
          <mxGeometry width="90" height="90" as="geometry" />
        </mxCell>
        <mxCell id="oM1QNY0bsyNBVNweQzOE-30" value="InputType" style="text;html=1;align=center;verticalAlign=middle;resizable=0;points=[];autosize=1;strokeColor=none;fillColor=none;fontStyle=1" parent="oM1QNY0bsyNBVNweQzOE-32" vertex="1">
          <mxGeometry x="5.0000000000000036" width="80" height="30" as="geometry" />
        </mxCell>
        <mxCell id="oM1QNY0bsyNBVNweQzOE-31" value="&lt;div&gt;Text&lt;/div&gt;&lt;div&gt;Select&lt;/div&gt;&lt;div&gt;Multi-select&lt;br&gt;&lt;/div&gt;" style="text;html=1;align=left;verticalAlign=middle;resizable=0;points=[];autosize=1;strokeColor=none;fillColor=none;" parent="oM1QNY0bsyNBVNweQzOE-32" vertex="1">
          <mxGeometry x="7.496250000000005" y="19.995844155844107" width="80" height="60" as="geometry" />
        </mxCell>
        <mxCell id="oM1QNY0bsyNBVNweQzOE-33" value="" style="group" parent="1" vertex="1" connectable="0">
          <mxGeometry x="280" y="200" width="120" height="100" as="geometry" />
        </mxCell>
        <mxCell id="oM1QNY0bsyNBVNweQzOE-22" value="" style="rounded=0;whiteSpace=wrap;html=1;" parent="oM1QNY0bsyNBVNweQzOE-33" vertex="1">
          <mxGeometry width="120" height="100" as="geometry" />
        </mxCell>
        <mxCell id="oM1QNY0bsyNBVNweQzOE-25" value="Quiz" style="text;html=1;align=center;verticalAlign=middle;resizable=0;points=[];autosize=1;strokeColor=none;fillColor=none;fontStyle=1" parent="oM1QNY0bsyNBVNweQzOE-33" vertex="1">
          <mxGeometry x="35" width="50" height="30" as="geometry" />
        </mxCell>
        <mxCell id="oM1QNY0bsyNBVNweQzOE-26" value="&lt;div&gt;FK(Teacher)&lt;/div&gt;&lt;div&gt;FK(InputType)&lt;br&gt;&lt;/div&gt;" style="text;html=1;align=left;verticalAlign=middle;resizable=0;points=[];autosize=1;strokeColor=none;fillColor=none;" parent="oM1QNY0bsyNBVNweQzOE-33" vertex="1">
          <mxGeometry x="15.004999999999995" y="28.56998556998552" width="100" height="40" as="geometry" />
        </mxCell>
        <mxCell id="oM1QNY0bsyNBVNweQzOE-35" value="Question-title" style="text;html=1;align=center;verticalAlign=middle;resizable=0;points=[];autosize=1;strokeColor=none;fillColor=none;" parent="oM1QNY0bsyNBVNweQzOE-33" vertex="1">
          <mxGeometry x="10" y="70" width="90" height="30" as="geometry" />
        </mxCell>
        <mxCell id="oM1QNY0bsyNBVNweQzOE-34" value="" style="edgeStyle=entityRelationEdgeStyle;fontSize=12;html=1;endArrow=ERzeroToMany;startArrow=ERzeroToOne;rounded=0;entryX=0;entryY=0.75;entryDx=0;entryDy=0;exitX=1.025;exitY=0.433;exitDx=0;exitDy=0;exitPerimeter=0;" parent="1" source="oM1QNY0bsyNBVNweQzOE-29" target="oM1QNY0bsyNBVNweQzOE-22" edge="1">
          <mxGeometry width="100" height="100" relative="1" as="geometry">
            <mxPoint x="220" y="242.47000000000003" as="sourcePoint" />
            <mxPoint x="302.5" y="230" as="targetPoint" />
          </mxGeometry>
        </mxCell>
        <mxCell id="oM1QNY0bsyNBVNweQzOE-37" value="" style="group" parent="1" vertex="1" connectable="0">
          <mxGeometry x="280" y="310" width="150" height="170" as="geometry" />
        </mxCell>
        <mxCell id="oM1QNY0bsyNBVNweQzOE-38" value="" style="rounded=0;whiteSpace=wrap;html=1;" parent="oM1QNY0bsyNBVNweQzOE-37" vertex="1">
          <mxGeometry width="138.46153846153845" height="168.59504132231405" as="geometry" />
        </mxCell>
        <mxCell id="oM1QNY0bsyNBVNweQzOE-39" value="OfferedQuizAnswers" style="text;html=1;align=center;verticalAlign=middle;resizable=0;points=[];autosize=1;strokeColor=none;fillColor=none;fontStyle=1" parent="oM1QNY0bsyNBVNweQzOE-37" vertex="1">
          <mxGeometry x="0.0015384615384625988" width="140" height="30" as="geometry" />
        </mxCell>
        <mxCell id="oM1QNY0bsyNBVNweQzOE-41" value="&lt;div&gt;a.&lt;/div&gt;&lt;div&gt;b.&lt;/div&gt;&lt;div&gt;c.&lt;/div&gt;&lt;div&gt;d.&lt;br&gt;&lt;/div&gt;&lt;div&gt;Right Answer&lt;br&gt;&lt;/div&gt;" style="text;html=1;align=left;verticalAlign=middle;resizable=0;points=[];autosize=1;strokeColor=none;fillColor=none;" parent="oM1QNY0bsyNBVNweQzOE-37" vertex="1">
          <mxGeometry x="11.538461538461537" y="70.00346556473829" width="90" height="90" as="geometry" />
        </mxCell>
        <mxCell id="oM1QNY0bsyNBVNweQzOE-45" value="&lt;div&gt;FK(InputType)&lt;br&gt;&lt;/div&gt;&lt;div&gt;FK(OfferedAnswer)&lt;br&gt;&lt;/div&gt;" style="text;html=1;align=left;verticalAlign=middle;resizable=0;points=[];autosize=1;strokeColor=none;fillColor=none;" parent="oM1QNY0bsyNBVNweQzOE-37" vertex="1">
          <mxGeometry x="8.463076923076926" y="29.996666666666663" width="130" height="40" as="geometry" />
        </mxCell>
        <mxCell id="oM1QNY0bsyNBVNweQzOE-43" value="" style="edgeStyle=entityRelationEdgeStyle;fontSize=12;html=1;endArrow=ERzeroToMany;startArrow=ERzeroToOne;rounded=0;entryX=0.003;entryY=0.708;entryDx=0;entryDy=0;exitX=1.017;exitY=0.356;exitDx=0;exitDy=0;exitPerimeter=0;entryPerimeter=0;" parent="1" source="oM1QNY0bsyNBVNweQzOE-38" target="2VTOW2IW8ZpL9YFtVFEM-6" edge="1">
          <mxGeometry width="100" height="100" relative="1" as="geometry">
            <mxPoint x="378.0050000000001" y="393.0099855699855" as="sourcePoint" />
            <mxPoint x="475.5" y="327.9" as="targetPoint" />
          </mxGeometry>
        </mxCell>
        <mxCell id="oM1QNY0bsyNBVNweQzOE-44" value="" style="edgeStyle=entityRelationEdgeStyle;fontSize=12;html=1;endArrow=ERzeroToMany;startArrow=ERzeroToOne;rounded=0;entryX=0;entryY=0.5;entryDx=0;entryDy=0;exitX=1.031;exitY=0.9;exitDx=0;exitDy=0;exitPerimeter=0;" parent="1" source="oM1QNY0bsyNBVNweQzOE-31" target="oM1QNY0bsyNBVNweQzOE-38" edge="1">
          <mxGeometry width="100" height="100" relative="1" as="geometry">
            <mxPoint x="240" y="340" as="sourcePoint" />
            <mxPoint x="267" y="386.03" as="targetPoint" />
          </mxGeometry>
        </mxCell>
        <mxCell id="oM1QNY0bsyNBVNweQzOE-50" value="" style="group" parent="1" vertex="1" connectable="0">
          <mxGeometry x="100" y="360" width="110" height="80" as="geometry" />
        </mxCell>
        <mxCell id="oM1QNY0bsyNBVNweQzOE-55" value="" style="group" parent="oM1QNY0bsyNBVNweQzOE-50" vertex="1" connectable="0">
          <mxGeometry x="20" y="10" width="110" height="79.33866666666665" as="geometry" />
        </mxCell>
        <mxCell id="oM1QNY0bsyNBVNweQzOE-51" value="" style="rounded=0;whiteSpace=wrap;html=1;" parent="oM1QNY0bsyNBVNweQzOE-55" vertex="1">
          <mxGeometry width="104.76190476190477" height="79.33866666666665" as="geometry" />
        </mxCell>
        <mxCell id="oM1QNY0bsyNBVNweQzOE-52" value="&lt;div align=&quot;left&quot;&gt;OfferedAnswer&lt;/div&gt;" style="text;html=1;align=left;verticalAlign=middle;resizable=0;points=[];autosize=1;strokeColor=none;fillColor=none;fontStyle=1" parent="oM1QNY0bsyNBVNweQzOE-55" vertex="1">
          <mxGeometry x="7.857142857142857" y="10" width="110" height="30" as="geometry" />
        </mxCell>
        <mxCell id="oM1QNY0bsyNBVNweQzOE-53" value="a.xxx" style="text;html=1;align=left;verticalAlign=middle;resizable=0;points=[];autosize=1;strokeColor=none;fillColor=none;" parent="oM1QNY0bsyNBVNweQzOE-55" vertex="1">
          <mxGeometry x="7.859761904761905" y="29.668297520661163" width="50" height="30" as="geometry" />
        </mxCell>
        <mxCell id="oM1QNY0bsyNBVNweQzOE-58" value="" style="edgeStyle=entityRelationEdgeStyle;fontSize=12;html=1;endArrow=ERzeroToMany;endFill=1;startArrow=ERzeroToMany;rounded=0;entryX=0;entryY=0.75;entryDx=0;entryDy=0;exitX=1.028;exitY=0.429;exitDx=0;exitDy=0;exitPerimeter=0;" parent="1" source="oM1QNY0bsyNBVNweQzOE-51" target="oM1QNY0bsyNBVNweQzOE-38" edge="1">
          <mxGeometry width="100" height="100" relative="1" as="geometry">
            <mxPoint x="200" y="590" as="sourcePoint" />
            <mxPoint x="300" y="490" as="targetPoint" />
          </mxGeometry>
        </mxCell>
        <mxCell id="oM1QNY0bsyNBVNweQzOE-59" value="Student" style="rounded=0;whiteSpace=wrap;html=1;fontStyle=1" parent="1" vertex="1">
          <mxGeometry x="310" y="510" width="80" height="60" as="geometry" />
        </mxCell>
        <mxCell id="oM1QNY0bsyNBVNweQzOE-60" value="" style="edgeStyle=entityRelationEdgeStyle;fontSize=12;html=1;endArrow=ERzeroToMany;startArrow=ERzeroToOne;rounded=0;exitX=1;exitY=0.4;exitDx=0;exitDy=0;entryX=0.005;entryY=0.675;entryDx=0;entryDy=0;exitPerimeter=0;entryPerimeter=0;" parent="1" source="oM1QNY0bsyNBVNweQzOE-59" target="oM1QNY0bsyNBVNweQzOE-8" edge="1">
          <mxGeometry width="100" height="100" relative="1" as="geometry">
            <mxPoint x="710" y="290" as="sourcePoint" />
            <mxPoint x="650" y="480" as="targetPoint" />
          </mxGeometry>
        </mxCell>
      </root>
    </mxGraphModel>
  </diagram>
  <diagram id="sBkRYG04THUq0nD2NC1Z" name="Page-2">
    <mxGraphModel dx="946" dy="617" grid="1" gridSize="10" guides="1" tooltips="1" connect="1" arrows="1" fold="1" page="1" pageScale="1" pageWidth="850" pageHeight="1100" math="0" shadow="0">
      <root>
        <mxCell id="0" />
        <mxCell id="1" parent="0" />
        <mxCell id="zOwiAkLwuJnWZPbeNpUU-1" value="" style="edgeStyle=entityRelationEdgeStyle;fontSize=12;html=1;endArrow=ERzeroToMany;startArrow=ERzeroToOne;rounded=0;exitX=0;exitY=0.5;exitDx=0;exitDy=0;entryX=1;entryY=0.5;entryDx=0;entryDy=0;" edge="1" parent="1" source="zOwiAkLwuJnWZPbeNpUU-16" target="zOwiAkLwuJnWZPbeNpUU-4">
          <mxGeometry width="100" height="100" relative="1" as="geometry">
            <mxPoint x="630" y="110" as="sourcePoint" />
            <mxPoint x="590" y="280" as="targetPoint" />
          </mxGeometry>
        </mxCell>
        <mxCell id="zOwiAkLwuJnWZPbeNpUU-2" value="" style="edgeStyle=entityRelationEdgeStyle;fontSize=12;html=1;endArrow=ERzeroToMany;startArrow=ERzeroToOne;rounded=0;entryX=0;entryY=0.25;entryDx=0;entryDy=0;" edge="1" parent="1" source="zOwiAkLwuJnWZPbeNpUU-15" target="zOwiAkLwuJnWZPbeNpUU-4">
          <mxGeometry width="100" height="100" relative="1" as="geometry">
            <mxPoint x="310" y="90" as="sourcePoint" />
            <mxPoint x="370" y="240" as="targetPoint" />
          </mxGeometry>
        </mxCell>
        <mxCell id="zOwiAkLwuJnWZPbeNpUU-3" value="" style="group;" vertex="1" connectable="0" parent="1">
          <mxGeometry x="422.5" y="140" width="171.25" height="130" as="geometry" />
        </mxCell>
        <mxCell id="zOwiAkLwuJnWZPbeNpUU-4" value="" style="rounded=0;whiteSpace=wrap;html=1;fillColor=#FFFF99;" vertex="1" parent="zOwiAkLwuJnWZPbeNpUU-3">
          <mxGeometry width="170" height="130" as="geometry" />
        </mxCell>
        <mxCell id="zOwiAkLwuJnWZPbeNpUU-5" value="&lt;div&gt;FK(Teacher)&lt;/div&gt;&lt;div&gt;FK(CourseCategory)&lt;br&gt;&lt;/div&gt;&lt;div&gt;FK(InputType)&lt;/div&gt;&lt;div&gt;FK(OfferedQuizAnswer)&lt;/div&gt;" style="text;html=1;align=left;verticalAlign=middle;resizable=0;points=[];autosize=1;strokeColor=none;fillColor=none;" vertex="1" parent="zOwiAkLwuJnWZPbeNpUU-3">
          <mxGeometry x="17.08" y="24.546363636363637" width="150" height="70" as="geometry" />
        </mxCell>
        <mxCell id="zOwiAkLwuJnWZPbeNpUU-6" value="CourseCategoryQuiz" style="text;whiteSpace=wrap;html=1;fontStyle=1" vertex="1" parent="zOwiAkLwuJnWZPbeNpUU-3">
          <mxGeometry x="14.166666666666668" width="155.83333333333334" height="24.545454545454547" as="geometry" />
        </mxCell>
        <mxCell id="byFegEmHWk51fzB0Tt7N-1" value="Question-title" style="text;html=1;align=center;verticalAlign=middle;resizable=0;points=[];autosize=1;strokeColor=none;fillColor=none;" vertex="1" parent="zOwiAkLwuJnWZPbeNpUU-3">
          <mxGeometry x="17.08000000000004" y="94.55000000000001" width="90" height="30" as="geometry" />
        </mxCell>
        <mxCell id="zOwiAkLwuJnWZPbeNpUU-8" value="" style="group;fillColor=#FFE6CC;" vertex="1" connectable="0" parent="1">
          <mxGeometry x="415" y="390" width="185" height="90" as="geometry" />
        </mxCell>
        <mxCell id="zOwiAkLwuJnWZPbeNpUU-9" value="" style="rounded=0;whiteSpace=wrap;html=1;fillColor=#FFE6CC;" vertex="1" parent="zOwiAkLwuJnWZPbeNpUU-8">
          <mxGeometry width="185.00000000000003" height="90" as="geometry" />
        </mxCell>
        <mxCell id="zOwiAkLwuJnWZPbeNpUU-10" value="&lt;div&gt;FK(Student)&lt;/div&gt;&lt;div&gt;FK(CourseCategoryQuiz)&lt;br&gt;&lt;/div&gt;" style="text;html=1;align=left;verticalAlign=middle;resizable=0;points=[];autosize=1;strokeColor=none;fillColor=none;" vertex="1" parent="zOwiAkLwuJnWZPbeNpUU-8">
          <mxGeometry x="15.415000000000003" y="24.996363636363636" width="160" height="40" as="geometry" />
        </mxCell>
        <mxCell id="zOwiAkLwuJnWZPbeNpUU-11" value="StudentQuizSolution" style="text;whiteSpace=wrap;html=1;fontStyle=1" vertex="1" parent="zOwiAkLwuJnWZPbeNpUU-8">
          <mxGeometry x="15.416666666666666" width="169.58333333333334" height="24.545454545454543" as="geometry" />
        </mxCell>
        <mxCell id="byFegEmHWk51fzB0Tt7N-2" value="Student Answer" style="text;html=1;align=center;verticalAlign=middle;resizable=0;points=[];autosize=1;strokeColor=none;fillColor=none;" vertex="1" parent="zOwiAkLwuJnWZPbeNpUU-8">
          <mxGeometry x="10" y="60" width="110" height="30" as="geometry" />
        </mxCell>
        <mxCell id="zOwiAkLwuJnWZPbeNpUU-13" value="" style="endArrow=classic;html=1;rounded=0;exitX=0.5;exitY=1;exitDx=0;exitDy=0;entryX=0.455;entryY=0;entryDx=0;entryDy=0;entryPerimeter=0;" edge="1" parent="1" source="zOwiAkLwuJnWZPbeNpUU-4" target="zOwiAkLwuJnWZPbeNpUU-11">
          <mxGeometry width="50" height="50" relative="1" as="geometry">
            <mxPoint x="490" y="300" as="sourcePoint" />
            <mxPoint x="540" y="250" as="targetPoint" />
          </mxGeometry>
        </mxCell>
        <mxCell id="zOwiAkLwuJnWZPbeNpUU-15" value="Teacher" style="rounded=0;whiteSpace=wrap;html=1;fontStyle=1" vertex="1" parent="1">
          <mxGeometry x="240" y="80" width="120" height="60" as="geometry" />
        </mxCell>
        <mxCell id="zOwiAkLwuJnWZPbeNpUU-16" value="CourseCategory" style="rounded=0;whiteSpace=wrap;html=1;fontStyle=1" vertex="1" parent="1">
          <mxGeometry x="630" y="70" width="100" height="60" as="geometry" />
        </mxCell>
        <mxCell id="zOwiAkLwuJnWZPbeNpUU-18" value="" style="group" vertex="1" connectable="0" parent="1">
          <mxGeometry x="110" y="120" width="90" height="90" as="geometry" />
        </mxCell>
        <mxCell id="zOwiAkLwuJnWZPbeNpUU-19" value="" style="rounded=0;whiteSpace=wrap;html=1;" vertex="1" parent="zOwiAkLwuJnWZPbeNpUU-18">
          <mxGeometry width="90" height="90" as="geometry" />
        </mxCell>
        <mxCell id="zOwiAkLwuJnWZPbeNpUU-20" value="InputType" style="text;html=1;align=center;verticalAlign=middle;resizable=0;points=[];autosize=1;strokeColor=none;fillColor=none;fontStyle=1" vertex="1" parent="zOwiAkLwuJnWZPbeNpUU-18">
          <mxGeometry x="5.0000000000000036" width="80" height="30" as="geometry" />
        </mxCell>
        <mxCell id="zOwiAkLwuJnWZPbeNpUU-21" value="&lt;div&gt;Text&lt;/div&gt;&lt;div&gt;Select&lt;/div&gt;&lt;div&gt;Multi-select&lt;br&gt;&lt;/div&gt;" style="text;html=1;align=left;verticalAlign=middle;resizable=0;points=[];autosize=1;strokeColor=none;fillColor=none;" vertex="1" parent="zOwiAkLwuJnWZPbeNpUU-18">
          <mxGeometry x="7.496250000000005" y="19.995844155844107" width="80" height="60" as="geometry" />
        </mxCell>
        <mxCell id="zOwiAkLwuJnWZPbeNpUU-27" value="" style="edgeStyle=entityRelationEdgeStyle;fontSize=12;html=1;endArrow=ERzeroToMany;startArrow=ERzeroToOne;rounded=0;exitX=1.025;exitY=0.433;exitDx=0;exitDy=0;exitPerimeter=0;" edge="1" parent="1" source="zOwiAkLwuJnWZPbeNpUU-19">
          <mxGeometry width="100" height="100" relative="1" as="geometry">
            <mxPoint x="180" y="202.47000000000003" as="sourcePoint" />
            <mxPoint x="420" y="200" as="targetPoint" />
          </mxGeometry>
        </mxCell>
        <mxCell id="zOwiAkLwuJnWZPbeNpUU-28" value="" style="group" vertex="1" connectable="0" parent="1">
          <mxGeometry x="240" y="270" width="150" height="170" as="geometry" />
        </mxCell>
        <mxCell id="zOwiAkLwuJnWZPbeNpUU-29" value="" style="rounded=0;whiteSpace=wrap;html=1;" vertex="1" parent="zOwiAkLwuJnWZPbeNpUU-28">
          <mxGeometry width="138.46153846153845" height="168.59504132231405" as="geometry" />
        </mxCell>
        <mxCell id="zOwiAkLwuJnWZPbeNpUU-30" value="OfferedQuizAnswers" style="text;html=1;align=center;verticalAlign=middle;resizable=0;points=[];autosize=1;strokeColor=none;fillColor=none;fontStyle=1" vertex="1" parent="zOwiAkLwuJnWZPbeNpUU-28">
          <mxGeometry x="0.0015384615384625988" width="140" height="30" as="geometry" />
        </mxCell>
        <mxCell id="zOwiAkLwuJnWZPbeNpUU-31" value="&lt;div&gt;a.&lt;/div&gt;&lt;div&gt;b.&lt;/div&gt;&lt;div&gt;c.&lt;/div&gt;&lt;div&gt;d.&lt;br&gt;&lt;/div&gt;&lt;div&gt;Right Answer&lt;br&gt;&lt;/div&gt;" style="text;html=1;align=left;verticalAlign=middle;resizable=0;points=[];autosize=1;strokeColor=none;fillColor=none;" vertex="1" parent="zOwiAkLwuJnWZPbeNpUU-28">
          <mxGeometry x="11.538461538461537" y="70.00346556473829" width="90" height="90" as="geometry" />
        </mxCell>
        <mxCell id="zOwiAkLwuJnWZPbeNpUU-32" value="&lt;div&gt;FK(InputType)&lt;br&gt;&lt;/div&gt;&lt;div&gt;MK(OfferedAnswer)&lt;br&gt;&lt;/div&gt;" style="text;html=1;align=left;verticalAlign=middle;resizable=0;points=[];autosize=1;strokeColor=none;fillColor=none;" vertex="1" parent="zOwiAkLwuJnWZPbeNpUU-28">
          <mxGeometry x="8.463076923076926" y="29.996666666666663" width="130" height="40" as="geometry" />
        </mxCell>
        <mxCell id="zOwiAkLwuJnWZPbeNpUU-33" value="" style="edgeStyle=entityRelationEdgeStyle;fontSize=12;html=1;endArrow=ERzeroToMany;startArrow=ERzeroToOne;rounded=0;entryX=0.003;entryY=0.708;entryDx=0;entryDy=0;exitX=1.017;exitY=0.356;exitDx=0;exitDy=0;exitPerimeter=0;entryPerimeter=0;" edge="1" parent="1" source="zOwiAkLwuJnWZPbeNpUU-29" target="zOwiAkLwuJnWZPbeNpUU-4">
          <mxGeometry width="100" height="100" relative="1" as="geometry">
            <mxPoint x="338.0050000000001" y="353.0099855699855" as="sourcePoint" />
            <mxPoint x="435.5" y="287.9" as="targetPoint" />
          </mxGeometry>
        </mxCell>
        <mxCell id="zOwiAkLwuJnWZPbeNpUU-34" value="" style="edgeStyle=entityRelationEdgeStyle;fontSize=12;html=1;endArrow=ERzeroToMany;startArrow=ERzeroToOne;rounded=0;entryX=0;entryY=0.5;entryDx=0;entryDy=0;exitX=1.031;exitY=0.9;exitDx=0;exitDy=0;exitPerimeter=0;" edge="1" parent="1" source="zOwiAkLwuJnWZPbeNpUU-21" target="zOwiAkLwuJnWZPbeNpUU-29">
          <mxGeometry width="100" height="100" relative="1" as="geometry">
            <mxPoint x="200" y="300" as="sourcePoint" />
            <mxPoint x="227" y="346.03" as="targetPoint" />
          </mxGeometry>
        </mxCell>
        <mxCell id="zOwiAkLwuJnWZPbeNpUU-35" value="" style="group" vertex="1" connectable="0" parent="1">
          <mxGeometry x="40" y="330" width="110" height="80" as="geometry" />
        </mxCell>
        <mxCell id="zOwiAkLwuJnWZPbeNpUU-36" value="" style="group" vertex="1" connectable="0" parent="zOwiAkLwuJnWZPbeNpUU-35">
          <mxGeometry x="20" y="10" width="110" height="79.33866666666665" as="geometry" />
        </mxCell>
        <mxCell id="zOwiAkLwuJnWZPbeNpUU-37" value="" style="rounded=0;whiteSpace=wrap;html=1;" vertex="1" parent="zOwiAkLwuJnWZPbeNpUU-36">
          <mxGeometry width="104.76190476190477" height="79.33866666666665" as="geometry" />
        </mxCell>
        <mxCell id="zOwiAkLwuJnWZPbeNpUU-38" value="&lt;div align=&quot;left&quot;&gt;OfferedAnswer&lt;/div&gt;" style="text;html=1;align=left;verticalAlign=middle;resizable=0;points=[];autosize=1;strokeColor=none;fillColor=none;fontStyle=1" vertex="1" parent="zOwiAkLwuJnWZPbeNpUU-36">
          <mxGeometry x="7.857142857142857" y="10" width="110" height="30" as="geometry" />
        </mxCell>
        <mxCell id="zOwiAkLwuJnWZPbeNpUU-39" value="a.xxx" style="text;html=1;align=left;verticalAlign=middle;resizable=0;points=[];autosize=1;strokeColor=none;fillColor=none;" vertex="1" parent="zOwiAkLwuJnWZPbeNpUU-36">
          <mxGeometry x="7.859761904761905" y="29.668297520661163" width="50" height="30" as="geometry" />
        </mxCell>
        <mxCell id="zOwiAkLwuJnWZPbeNpUU-40" value="" style="edgeStyle=entityRelationEdgeStyle;fontSize=12;html=1;endArrow=ERzeroToMany;endFill=1;startArrow=ERzeroToMany;rounded=0;entryX=0;entryY=0.75;entryDx=0;entryDy=0;exitX=1.028;exitY=0.429;exitDx=0;exitDy=0;exitPerimeter=0;" edge="1" parent="1" source="zOwiAkLwuJnWZPbeNpUU-37" target="zOwiAkLwuJnWZPbeNpUU-29">
          <mxGeometry width="100" height="100" relative="1" as="geometry">
            <mxPoint x="160" y="550" as="sourcePoint" />
            <mxPoint x="260" y="450" as="targetPoint" />
          </mxGeometry>
        </mxCell>
        <mxCell id="zOwiAkLwuJnWZPbeNpUU-41" value="Student" style="rounded=0;whiteSpace=wrap;html=1;fontStyle=1" vertex="1" parent="1">
          <mxGeometry x="260" y="460" width="80" height="60" as="geometry" />
        </mxCell>
        <mxCell id="zOwiAkLwuJnWZPbeNpUU-42" value="" style="edgeStyle=entityRelationEdgeStyle;fontSize=12;html=1;endArrow=ERzeroToMany;startArrow=ERzeroToOne;rounded=0;exitX=1;exitY=0.4;exitDx=0;exitDy=0;entryX=0.005;entryY=0.675;entryDx=0;entryDy=0;exitPerimeter=0;entryPerimeter=0;" edge="1" parent="1" source="zOwiAkLwuJnWZPbeNpUU-41" target="zOwiAkLwuJnWZPbeNpUU-9">
          <mxGeometry width="100" height="100" relative="1" as="geometry">
            <mxPoint x="670" y="250" as="sourcePoint" />
            <mxPoint x="610" y="440" as="targetPoint" />
          </mxGeometry>
        </mxCell>
      </root>
    </mxGraphModel>
  </diagram>
</mxfile>
